<svg xmlns="http://www.w3.org/2000/svg" viewBox="0 0 850 550" fill="none"><rect width="850" height="550" rx="36" fill="#ffffff"/><path d="M694 60c76 0 133 53 133 114 0 57-51 103-111 103-34 0-61-9-90-24-24-12-55-23-98-23-39 0-76 9-108 9-75 0-134-51-134-117C286 52 382 0 475 0c68 0 110 20 161 39 16 6 34 21 58 21z" fill="#ffffff"/><path d="M-8 399c0-71 66-127 150-127 43 0 82 13 113 34 24 17 54 41 101 41 28 0 56-6 82-6 85 0 152 54 152 124 0 75-72 135-163 135H130C56 600 0 523 0 449c0-18-8-30-8-50z" fill="#FFFFFF"/></svg>