<svg xmlns="http://www.w3.org/2000/svg" viewBox="0 0 850 550" fill="none"><rect width="850" height="550" rx="36" fill="#FFFFFF"/><path d="M0 148c105-44 209-67 328-67 154 0 246 38 356 81 55 22 106 36 166 43v111c-58-9-111-25-169-47-108-41-195-76-351-76-126 0-224 22-330 68V148Z" fill="#f9ecd3"/><path d="M0 324c78-17 149-38 242-38 115 0 193 30 279 56 79 24 138 37 213 37 39 0 78-5 116-15v186H0V324Z" fill="#F3D7A3"/><path d="M0 437c75-18 140-28 221-28 96 0 166 18 250 43 86 25 153 39 245 39 45 0 89-3 134-12v71H0v-113Z" fill="#ccb58e"/></svg>