<?xml version="1.0" encoding="UTF-8"?>
<svg id="Laag_1" xmlns="http://www.w3.org/2000/svg" xmlns:ns0="http://www.w3.org/2000/svg" version="1.1" viewBox="0 0 155.91 155.91">
  <!-- Generator: Adobe Illustrator 30.1.0, SVG Export Plug-In . SVG Version: 2.1.1 Build 136)  -->
  <defs>
    <style>
      .st0 {
        fill: #d86986;
      }

      .st1 {
        fill: #e8833a;
      }

      .st2 {
        isolation: isolate;
      }

      .st3 {
        fill: #8fbfaf;
      }
</style>
  </defs>
  <rect class="st3" x="-42.52" width="240.94" height="155.91"/>
  <path class="st1" d="M109.63,30.2c27.27-15.34,68.17-7.66,79.53,28.11,9.09,30.67-13.64,53.67-47.72,58.78s-61.36-17.89-56.81-48.56c4.54-25.56,11.36-33.22,24.99-38.33h.02-.01Z"/>
  <g class="st2">
    <g class="st2">















</g>
  </g>
  <g class="st2">
    <g class="st2">
      <path class="st0" d="M-19.68,75.06v-.84h-.03c-.05.26-.21.49-.47.67s-.6.27-1.02.27-.83-.11-1.18-.33-.62-.54-.81-.96c-.2-.42-.29-.94-.29-1.56s.1-1.14.3-1.57.48-.75.85-.97.79-.33,1.27-.33.91.11,1.26.33.62.53.81.91l-.73.43c-.11-.26-.28-.47-.5-.63-.22-.16-.5-.24-.84-.24-.29,0-.55.06-.77.19-.22.13-.39.31-.52.55-.12.24-.18.53-.18.87v.9c0,.34.06.63.18.87.12.24.29.43.52.56.22.13.49.19.8.19.24,0,.45-.04.64-.12.19-.08.34-.19.46-.35.12-.16.17-.35.17-.58v-.43h-1.14v-.77h2.01v2.95h-.79,0Z"/>
      <path class="st0" d="M-16.08,75.15c-.39,0-.73-.09-1.02-.27s-.51-.43-.66-.75c-.16-.32-.23-.7-.23-1.14s.08-.82.23-1.14.37-.57.65-.75c.28-.18.62-.27,1.01-.27s.75.09,1.02.27.48.43.62.74.21.66.21,1.04v.33h-2.83v.13c0,.32.09.58.28.78s.46.31.81.31c.25,0,.47-.06.64-.17s.32-.26.44-.45l.52.5c-.16.25-.38.45-.67.6s-.62.23-1,.23h-.02ZM-16.09,71.51c-.2,0-.38.05-.53.14s-.27.22-.35.38c-.08.16-.12.35-.12.56v.06h1.92v-.08c0-.21-.04-.4-.11-.56-.07-.16-.18-.28-.32-.37-.14-.09-.3-.13-.49-.13Z"/>
      <path class="st0" d="M-11.99,75.15c-.39,0-.71-.07-.98-.21s-.5-.33-.69-.57l.56-.51c.15.18.32.32.51.43s.41.16.66.16.44-.05.57-.15c.12-.1.19-.23.19-.41,0-.13-.04-.24-.13-.33-.09-.09-.24-.15-.46-.18l-.38-.05c-.28-.04-.52-.11-.72-.21-.21-.09-.36-.23-.47-.39-.11-.17-.16-.38-.16-.63,0-.4.14-.71.42-.94s.65-.33,1.11-.33c.25,0,.47.03.65.08s.35.13.49.23c.14.1.28.21.4.35l-.53.51c-.11-.13-.25-.24-.42-.33-.17-.09-.37-.14-.59-.14s-.41.05-.52.14c-.12.09-.17.22-.17.38s.05.28.15.36.26.14.48.17l.38.05c.46.07.79.2,1,.4.21.2.31.46.31.8,0,.26-.07.5-.2.69-.14.2-.32.35-.57.46-.24.11-.53.17-.87.17,0,0-.02,0-.02,0Z"/>
      <path class="st0" d="M-9.38,76.64v-5.72h.87v.68h.04c.08-.25.23-.44.44-.58.21-.13.45-.2.72-.2.35,0,.65.09.89.26.24.17.43.42.56.74s.19.71.19,1.16-.06.84-.19,1.16c-.13.32-.32.57-.56.74s-.54.26-.89.26c-.28,0-.51-.07-.71-.21s-.35-.33-.44-.57h-.04v2.27h-.88ZM-7.58,74.42c.3,0,.54-.1.72-.3.18-.2.27-.46.27-.77v-.71c0-.32-.09-.57-.27-.77s-.42-.29-.72-.29c-.17,0-.33.03-.47.09s-.25.14-.34.25c-.08.11-.13.23-.13.37v1.4c0,.16.04.29.13.4.08.11.2.19.34.25s.3.09.47.09h0Z"/>
      <path class="st0" d="M-3.81,75.06h-.87v-4.13h.87v.82h.04c.04-.14.11-.27.2-.39s.22-.23.37-.31c.15-.08.34-.12.56-.12h.23v.83h-.34c-.23,0-.42.03-.58.08s-.28.13-.36.22c-.08.09-.12.21-.12.36,0,0,0,2.64,0,2.64Z"/>
      <path class="st0" d="M-.05,75.15c-.39,0-.73-.09-1.02-.27s-.51-.43-.66-.75c-.16-.32-.23-.7-.23-1.14s.08-.82.23-1.14c.15-.32.37-.57.65-.75.28-.18.62-.27,1.01-.27s.75.09,1.02.27.48.43.62.74.21.66.21,1.04v.33H-1.05v.13c0,.32.09.58.28.78s.46.31.81.31c.25,0,.47-.06.64-.17s.32-.26.44-.45l.52.5c-.16.25-.38.45-.67.6s-.62.23-1,.23h-.02ZM-.06,71.51c-.2,0-.38.05-.53.14s-.27.22-.35.38-.12.35-.12.56v.06H.86v-.08c0-.21-.04-.4-.11-.56-.07-.16-.18-.28-.32-.37-.14-.09-.3-.13-.49-.13Z"/>
      <path class="st0" d="M2.73,75.06v-5.88h.87v3.61h.04l.58-.73,1.02-1.14h.99l-1.46,1.61,1.62,2.52h-1.04l-1.18-1.95-.58.6v1.34h-.87v.02h0Z"/>
      <path class="st0" d="M8.31,75.15c-.39,0-.71-.07-.98-.21s-.5-.33-.69-.57l.56-.51c.15.18.32.32.51.43s.41.16.66.16.44-.05.57-.15c.12-.1.19-.23.19-.41,0-.13-.04-.24-.13-.33-.09-.09-.24-.15-.46-.18l-.38-.05c-.28-.04-.52-.11-.72-.21-.21-.09-.36-.23-.47-.39-.11-.17-.16-.38-.16-.63,0-.4.14-.71.42-.94s.65-.33,1.11-.33c.25,0,.47.03.65.08s.35.13.49.23c.14.1.28.21.4.35l-.53.51c-.11-.13-.25-.24-.42-.33-.17-.09-.37-.14-.59-.14s-.41.05-.52.14c-.12.09-.17.22-.17.38s.05.28.15.36c.1.08.26.14.48.17l.38.05c.46.07.79.2,1,.4.21.2.31.46.31.8,0,.26-.07.5-.2.69-.14.2-.32.35-.57.46-.24.11-.53.17-.87.17h-.02Z"/>
      <path class="st0" d="M10.92,75.06v-5.88h.87v3.61h.04l.58-.73,1.02-1.14h.99l-1.46,1.61,1.62,2.52h-1.04l-1.18-1.95-.58.6v1.34h-.87v.02h0Z"/>
      <path class="st0" d="M18.76,75.06h-.48c-.16,0-.3-.04-.41-.11s-.2-.17-.26-.31c-.06-.13-.09-.29-.09-.47v-.07l.25.26h-.28c-.08.25-.23.45-.44.58-.21.13-.47.2-.77.2-.42,0-.75-.11-.98-.33s-.35-.52-.35-.9c0-.27.07-.5.2-.69.14-.18.33-.32.59-.41.26-.09.58-.14.97-.14h.75v-.35c0-.25-.07-.44-.21-.58s-.35-.21-.64-.21c-.24,0-.44.05-.59.16-.16.11-.29.24-.39.4l-.52-.47c.14-.23.33-.42.58-.58.25-.15.58-.23.97-.23.53,0,.94.12,1.23.38.29.25.43.61.43,1.07v2.07h.44v.73h0ZM17.46,73.24h-.73c-.3,0-.53.05-.67.14-.15.1-.22.23-.22.41v.14c0,.18.06.32.19.41.13.1.3.14.51.14.18,0,.34-.03.48-.08s.25-.13.33-.23.12-.22.12-.35v-.6.02h0Z"/>
      <path class="st0" d="M23.12,75.06h-.48c-.16,0-.3-.04-.41-.11s-.2-.17-.26-.31c-.06-.13-.09-.29-.09-.47v-.07l.25.26h-.28c-.08.25-.23.45-.44.58-.21.13-.47.2-.77.2-.42,0-.75-.11-.98-.33s-.35-.52-.35-.9c0-.27.07-.5.2-.69.14-.18.33-.32.59-.41.26-.09.58-.14.97-.14h.75v-.35c0-.25-.07-.44-.21-.58s-.35-.21-.64-.21c-.24,0-.44.05-.59.16-.16.11-.29.24-.39.4l-.52-.47c.14-.23.33-.42.58-.58.25-.15.58-.23.97-.23.53,0,.94.12,1.23.38.29.25.43.61.43,1.07v2.07h.44s0,.73,0,.73ZM21.82,73.24h-.73c-.3,0-.53.05-.67.14-.15.1-.22.23-.22.41v.14c0,.18.06.32.19.41.13.1.3.14.51.14.18,0,.34-.03.48-.08s.25-.13.33-.23.12-.22.12-.35v-.6.02h0Z"/>
      <path class="st0" d="M24.83,75.06h-.87v-4.13h.87v.82h.04c.04-.14.11-.27.2-.39s.22-.23.37-.31c.15-.08.34-.12.56-.12h.23v.83h-.34c-.23,0-.42.03-.58.08s-.28.13-.36.22c-.08.09-.12.21-.12.36,0,0,0,2.64,0,2.64Z"/>
      <path class="st0" d="M28.94,75.06h-.75c-.3,0-.52-.08-.68-.24-.16-.16-.23-.38-.23-.66v-2.52h-.64v-.71h.35c.15,0,.25-.03.3-.09s.08-.17.08-.31v-.72h.78v1.13h.87v.71h-.87v2.71h.8v.71h-.01Z"/>
      <path class="st0" d="M31.54,75.15c-.39,0-.73-.09-1.02-.27-.29-.18-.51-.43-.66-.75-.16-.32-.23-.7-.23-1.14s.08-.82.23-1.14.37-.57.65-.75.62-.27,1.01-.27.75.09,1.02.27.48.43.62.74.21.66.21,1.04v.33h-2.83v.13c0,.32.09.58.28.78s.46.31.81.31c.25,0,.47-.06.64-.17s.32-.26.44-.45l.52.5c-.16.25-.38.45-.67.6s-.62.23-1,.23h-.02ZM31.53,71.51c-.2,0-.38.05-.53.14s-.27.22-.35.38c-.08.16-.12.35-.12.56v.06h1.92v-.08c0-.21-.04-.4-.11-.56-.07-.16-.18-.28-.32-.37-.14-.09-.3-.13-.49-.13Z"/>
      <path class="st0" d="M35.18,75.06h-.87v-4.13h.87v.68h.04c.09-.22.23-.41.41-.56.18-.15.43-.22.75-.22.42,0,.75.14.99.42s.35.68.35,1.18v2.62h-.87v-2.52c0-.32-.06-.57-.19-.73-.12-.16-.32-.24-.59-.24-.15,0-.29.02-.43.08s-.25.13-.34.23c-.09.11-.13.24-.13.4v2.78h0Z"/>
      <path class="st0" d="M42.72,75.06h-1.02l-1.41-4.13h.86l.64,1.88.42,1.45h.05l.42-1.45.64-1.88h.82l-1.41,4.13h0Z"/>
      <path class="st0" d="M46.41,75.15c-.39,0-.72-.09-1-.27s-.5-.43-.66-.75-.23-.7-.23-1.14.08-.82.23-1.14c.16-.32.38-.57.66-.75s.62-.27,1-.27.71.09,1,.27.5.43.66.75.23.7.23,1.14-.08.82-.23,1.14c-.16.32-.38.57-.66.75-.28.18-.62.27-1,.27ZM46.41,74.43c.3,0,.53-.09.71-.27s.27-.45.27-.81v-.7c0-.36-.09-.63-.27-.81s-.41-.27-.71-.27-.53.09-.71.27-.27.45-.27.81v.7c0,.36.09.63.27.81s.42.27.71.27Z"/>
      <path class="st0" d="M50.87,75.15c-.39,0-.72-.09-1-.27s-.5-.43-.66-.75-.23-.7-.23-1.14.08-.82.23-1.14c.16-.32.38-.57.66-.75s.62-.27,1-.27.71.09,1,.27.5.43.66.75.23.7.23,1.14-.08.82-.23,1.14c-.16.32-.38.57-.66.75-.28.18-.62.27-1,.27ZM50.87,74.43c.3,0,.53-.09.71-.27s.27-.45.27-.81v-.7c0-.36-.09-.63-.27-.81s-.41-.27-.71-.27-.53.09-.71.27-.27.45-.27.81v.7c0,.36.09.63.27.81s.42.27.71.27Z"/>
      <path class="st0" d="M54.59,75.06h-.87v-4.13h.87v.82h.04c.04-.14.11-.27.2-.39s.22-.23.37-.31c.15-.08.34-.12.56-.12h.23v.83h-.34c-.23,0-.42.03-.58.08s-.28.13-.36.22c-.08.09-.12.21-.12.36,0,0,0,2.64,0,2.64Z"/>
      <path class="st0" d="M60.53,75.06h-.75c-.3,0-.52-.08-.68-.24-.16-.16-.23-.38-.23-.66v-2.52h-.64v-.71h.35c.15,0,.25-.03.3-.09s.08-.17.08-.31v-.72h.78v1.13h.87v.71h-.87v2.71h.8v.71h-.01Z"/>
      <path class="st0" d="M63.13,75.15c-.39,0-.73-.09-1.02-.27-.29-.18-.51-.43-.66-.75-.16-.32-.23-.7-.23-1.14s.08-.82.23-1.14.37-.57.65-.75.62-.27,1.01-.27.75.09,1.02.27.48.43.62.74.21.66.21,1.04v.33h-2.83v.13c0,.32.09.58.28.78s.46.31.81.31c.25,0,.47-.06.64-.17s.32-.26.44-.45l.52.5c-.16.25-.38.45-.67.6s-.62.23-1,.23h-.02ZM63.12,71.51c-.2,0-.38.05-.53.14s-.27.22-.35.38c-.08.16-.12.35-.12.56v.06h1.92v-.08c0-.21-.04-.4-.11-.56-.07-.16-.18-.28-.32-.37-.14-.09-.3-.13-.49-.13Z"/>
      <path class="st0" d="M69.42,75.06h-.48c-.16,0-.3-.04-.41-.11s-.2-.17-.26-.31c-.06-.13-.09-.29-.09-.47v-.07l.25.26h-.28c-.08.25-.23.45-.44.58-.21.13-.47.2-.77.2-.42,0-.75-.11-.98-.33s-.35-.52-.35-.9c0-.27.07-.5.2-.69.14-.18.33-.32.59-.41.26-.09.58-.14.97-.14h.75v-.35c0-.25-.07-.44-.21-.58s-.35-.21-.64-.21c-.24,0-.44.05-.59.16-.16.11-.29.24-.39.4l-.52-.47c.14-.23.33-.42.58-.58.25-.15.58-.23.97-.23.53,0,.94.12,1.23.38.29.25.43.61.43,1.07v2.07h.44s0,.73,0,.73ZM68.11,73.24h-.73c-.3,0-.53.05-.67.14-.15.1-.22.23-.22.41v.14c0,.18.06.32.19.41.13.1.3.14.51.14.18,0,.34-.03.48-.08.14-.05.25-.13.33-.23s.12-.22.12-.35v-.6.02h-.01Z"/>
      <path class="st0" d="M71.13,75.06h-.87v-4.13h.87v.68h.04c.08-.22.21-.4.39-.55.17-.15.41-.23.73-.23.27,0,.52.07.74.2s.38.35.48.64h.02c.07-.23.22-.42.43-.59s.49-.25.83-.25c.41,0,.73.14.96.42.23.28.34.68.34,1.18v2.62h-.87v-2.52c0-.32-.06-.57-.18-.73s-.31-.24-.57-.24c-.14,0-.28.02-.41.08s-.24.13-.32.23c-.08.11-.12.24-.12.4v2.78h-.87v-2.52c0-.32-.06-.57-.18-.73s-.31-.24-.56-.24c-.14,0-.28.02-.41.08s-.24.13-.32.23c-.08.11-.12.24-.12.4v2.78h-.03,0Z"/>
      <path class="st0" d="M78.58,75.15c-.39,0-.71-.07-.98-.21s-.5-.33-.69-.57l.56-.51c.15.18.32.32.51.43s.41.16.66.16.44-.05.57-.15c.12-.1.19-.23.19-.41,0-.13-.04-.24-.13-.33-.09-.09-.24-.15-.46-.18l-.38-.05c-.28-.04-.52-.11-.72-.21-.21-.09-.36-.23-.47-.39-.11-.17-.16-.38-.16-.63,0-.4.14-.71.42-.94s.65-.33,1.11-.33c.25,0,.47.03.65.08.19.05.35.13.49.23.14.1.28.21.4.35l-.53.51c-.11-.13-.25-.24-.42-.33-.17-.09-.37-.14-.59-.14s-.41.05-.52.14c-.12.09-.17.22-.17.38s.05.28.15.36.26.14.48.17l.38.05c.46.07.79.2,1,.4.21.2.31.46.31.8,0,.26-.07.5-.2.69s-.32.35-.57.46c-.24.11-.53.17-.87.17h-.02Z"/>
    </g>
  </g>
</svg>