<svg xmlns="http://www.w3.org/2000/svg" viewBox="0 0 850 550" fill="none"><rect width="850" height="550" rx="36" fill="#fcf4e6"/><path d="M0 79C119 33 210 17 328 17c130 0 214 33 323 71 62 22 117 36 199 41v153c-76 8-141 0-208-23-109-37-191-82-314-82-119 0-222 44-328 92V79z" fill="#f9ecd3"/><path d="M0 453c87-25 145-67 246-67 90 0 143 32 217 54 59 18 113 24 167 24 84 0 136-19 220-48v184H0V453z" fill="#fdf9f0"/><path d="M-14 305c82 20 140 42 212 42 77 0 120-20 186-42 63-21 132-42 226-42 90 0 150 22 240 64v115c-87 28-145 41-234 41-85 0-145-16-220-39-64-19-110-38-188-38-85 0-137 20-208 42L-14 305z" fill="#F3D7A3"/></svg>