<?xml version="1.0" encoding="UTF-8"?>
<svg id="Layer_1" xmlns="http://www.w3.org/2000/svg" xmlns:xlink="http://www.w3.org/1999/xlink" version="1.1" viewBox="0 0 1024 1024">
  <!-- Generator: Adobe Illustrator 30.2.1, SVG Export Plug-In . SVG Version: 2.1.1 Build 1)  -->
  <defs>
    <style>
      .st0 {
        opacity: .92;
      }

      .st0, .st1 {
        isolation: isolate;
      }

      .st2 {
        fill: #4f8e9e;
      }

      .st3 {
        fill: url(#linear-gradient);
      }

      .st4 {
        fill: none;
        stroke: #5e9ca5;
        stroke-linecap: round;
        stroke-linejoin: round;
        stroke-width: 4.72px;
      }

      .st5 {
        fill: #5e9ca5;
      }

      .st6 {
        fill: #a8e1dd;
      }
    </style>
    <linearGradient id="linear-gradient" x1="-295.62" y1="35.07" x2="-295.62" y2="36.06" gradientTransform="translate(62329.15 -5716.04) scale(209.11 170.98)" gradientUnits="userSpaceOnUse">
      <stop offset="0" stop-color="#f7fafb"/>
      <stop offset=".6" stop-color="#f2f6f7"/>
      <stop offset="1" stop-color="#eaf1f2"/>
    </linearGradient>
  </defs>
  <rect class="st6" width="1024" height="1024"/>
  <g>
    <path class="st3" d="M583.95,451.04l-40.91-19.76-81.83,8.36-12.12-.77-11.37-3.8-2.65-1.9,1.13-1.14-2.28.77-7.96-7.98-6.82-16.72.76-6.84-5.3-19.76-6.82-50.15.75-13.68,3.78-7.6,9.48-8.73,21.97-7.6,114.42-13.68,20.46.77,12.88,6.08,8.71,10.26,4.55,12.92,2.27,12.16-1.51,3.8,3.03,6.08,3.79,25.08v3.04l-3.79,2.28h4.55l3.79,31.92-3.04,11.4-5.3,8.36-10.23,8.73-14.78,5.71.38,22.41h0s0,0,0,0h0Z"/>
    <g>
      <path class="st4" d="M473.69,370.99c12.39-12.39,28.62-12.98,41.89-7.08,13.28,5.9,28.03,4.13,41.89-11.8"/>
      <path class="st5" d="M541.75,281.06c9.46-1.39,19.05-2.83,28.57-2.07,8.47.67,9.03.88,9.36,1,8.85,3.27,15.09,8.65,20.93,16.37,2.82,4.08,4.37,8.7,5.41,13.48,2.96,16.83,4.99,33.8,8.03,50.63,1.37,8.15,2.69,16.3,3.54,24.52,1.6,11.72.41,23.4-7.44,32.59-4.23,5.03-9.61,8.62-15.93,10.95-2.64,1.24-7.71,1.7-9.16,4.05-.96,1.77-.04,5.46.28,7.77.63,3.9,1.23,7.91,1.64,11.89.57,4.95-3.06,4.35-6.35,2.73-3.12-1.46-6.1-2.96-9.16-4.47-8.42-4.07-16.69-8.85-25.31-12.39-2.51-1.04-5.07-1.48-7.8-1.32-21.79,1.6-43.48,4.6-65.27,6.02-8.71.67-17.55,1.95-26.15-.31-10.99-3.05-21.15-10.41-26.09-21.09-2.15-4.4-3.44-9.83-4.13-14.81-1.91-13.03-4.44-25.94-6.47-38.95-1.32-8.28-2.87-16.55-3.92-24.85-.89-7.35-1.86-15.21-.14-22.47,2.91-13.47,14.12-22.93,27.05-25.72,18.16-3.82,36.88-5.04,55.21-7.26,17.72-1.9,35.56-3.51,53.18-6.25M497.1,290.22c-17.88,2.31-35.56,4.79-53.31,6.64-3,.26-5.75,1.36-8.63,2.32-9.76,3.24-18.99,9.71-22.42,19.78-1.44,4.03-1.57,8.54-1.17,12.8.73,9.31,2.11,18.59,3.37,27.85,1.83,14.54,4.67,29,6.96,43.64,3.85,28.01,21.68,37.63,47.77,34.61,21.03-1.77,42.01-3.94,62.99-6.13,6.76-.89,11.63-2.03,17.8,1.98,9.8,5.52,19.45,10.73,29.65,15.43,3.24,1.44,3.21-1.74,3.03-4.17-.32-4.73-.83-7.59-1.4-10.94-.51-2.66-1.51-6.68,1.87-7.68,5.42-1.48,10.83-2.91,15.34-6.46,8.9-7.05,14.86-17.54,14.31-29.19-.32-5.51-1.36-10.95-2.12-16.39-1.45-8.62-2.9-21.62-4.14-30.27-.82-5.74-2.28-11.26-2.98-17.03-.66-6.92-1.37-9.5-2.9-16.29-.89-3.86-1.77-7.08-3.67-10.54-8.69-15.75-23.53-18.74-40.17-17.01-20.08,1.95-39.98,4.99-60.04,7.05h-.14s0,0,0,0h0,0Z"/>
      <path class="st5" d="M542.33,279.88c9.46-1.39,19.05-2.83,28.57-2.07,8.47.67,9.03.88,9.36,1,8.85,3.27,15.09,8.65,20.93,16.37,2.82,4.08,4.37,8.7,5.41,13.48,2.96,16.83,4.99,33.8,8.03,50.63,1.37,8.15,2.69,16.3,3.54,24.52,1.6,11.72.41,23.4-7.44,32.59-4.23,5.03-9.61,8.62-15.93,10.95-2.64,1.24-7.71,1.7-9.16,4.05-.96,1.77-.04,5.46.28,7.77.63,3.9,1.23,7.91,1.64,11.89.57,4.95-3.06,4.35-6.35,2.73-3.12-1.46-6.1-2.96-9.16-4.47-8.42-4.07-16.69-8.85-25.31-12.39-2.51-1.04-5.07-1.48-7.8-1.32-21.79,1.6-43.48,4.6-65.27,6.02-8.71.67-17.55,1.95-26.15-.31-10.99-3.05-21.15-10.41-26.09-21.09-2.15-4.4-3.44-9.83-4.13-14.81-1.91-13.03-4.44-25.94-6.47-38.95-1.32-8.28-2.87-16.55-3.92-24.85-.89-7.35-1.86-15.21-.14-22.47,2.91-13.47,14.12-22.93,27.05-25.72,18.16-3.82,36.88-5.04,55.21-7.26,17.72-1.9,35.56-3.51,53.18-6.25M497.68,289.04c-17.88,2.31-35.56,4.79-53.31,6.64-3,.26-5.75,1.36-8.63,2.32-9.76,3.24-18.99,9.71-22.42,19.78-1.44,4.03-1.57,8.54-1.17,12.8.73,9.31,2.11,18.59,3.37,27.85,1.83,14.54,4.67,29,6.96,43.64,3.85,28.01,21.68,37.63,47.77,34.61,21.03-1.77,42.01-3.94,62.99-6.13,6.76-.89,11.63-2.03,17.8,1.98,9.8,5.52,19.45,10.73,29.65,15.43,3.24,1.44,3.21-1.74,3.03-4.17-.32-4.73-.83-7.59-1.4-10.94-.51-2.66-1.51-6.68,1.87-7.68,5.42-1.48,10.83-2.91,15.34-6.46,8.9-7.05,14.86-17.54,14.31-29.19-.32-5.51-1.36-10.95-2.12-16.39-1.45-8.62-2.9-21.62-4.14-30.27-.82-5.74-2.28-11.26-2.98-17.03-.66-6.92-1.37-9.5-2.9-16.29-.89-3.86-1.77-7.08-3.67-10.54-8.69-15.75-23.53-18.74-40.17-17.01-20.08,1.95-39.98,4.99-60.04,7.05h-.14s0,0,0,0h0,0Z"/>
    </g>
  </g>
  <g class="st0">
    <path class="st2" d="M309.02,484.68h5.8v29.81c0,3.04.37,5.6,1.1,7.69.74,2.09,1.94,3.67,3.62,4.73,1.68,1.06,3.94,1.59,6.8,1.59s5.12-.53,6.8-1.59c1.68-1.06,2.89-2.63,3.62-4.73.74-2.09,1.1-4.66,1.1-7.69v-29.81h5.8v28.43c0,4.65-.56,8.5-1.69,11.56-1.13,3.06-2.98,5.33-5.55,6.8-2.58,1.47-6,2.21-10.28,2.21s-7.66-.74-10.14-2.21-4.27-3.74-5.35-6.8c-1.08-3.06-1.62-6.91-1.62-11.56v-28.43Z"/>
    <path class="st2" d="M359.67,488.88c-1.15,0-2-.29-2.55-.86-.55-.58-.83-1.32-.83-2.24v-.9c0-.92.28-1.67.83-2.24.55-.58,1.4-.86,2.55-.86s2.06.29,2.59.86c.53.58.79,1.32.79,2.24v.9c0,.92-.26,1.67-.79,2.24-.53.58-1.39.86-2.59.86ZM356.91,532.84v-35.6h5.52v35.6h-5.52Z"/>
    <path class="st2" d="M390.23,532.84h-6.9c-1.89,0-3.34-.55-4.35-1.66-1.01-1.1-1.52-2.51-1.52-4.21v-24.91h-5.87v-4.83h3.31c1.2,0,2.01-.24,2.45-.72.44-.48.66-1.32.66-2.52v-6.62h4.97v9.87h7.8v4.83h-7.8v25.94h7.25v4.83Z"/>
    <path class="st2" d="M430.32,536.77c0,2.44-.64,4.45-1.93,6.04-1.29,1.59-3.21,2.76-5.76,3.52s-5.74,1.14-9.56,1.14-6.68-.34-9-1.04c-2.32-.69-4.01-1.69-5.07-3-1.06-1.31-1.59-2.89-1.59-4.73,0-1.93.51-3.45,1.52-4.55,1.01-1.1,2.39-1.88,4.14-2.35v-.76c-1.01-.51-1.79-1.16-2.35-1.97-.55-.8-.83-1.8-.83-3,0-1.79.57-3.16,1.72-4.11,1.15-.94,2.62-1.64,4.42-2.1v-.28c-2.12-1.01-3.76-2.46-4.93-4.35-1.17-1.89-1.76-4.07-1.76-6.56s.55-4.58,1.66-6.42c1.1-1.84,2.67-3.28,4.69-4.31,2.02-1.03,4.37-1.55,7.04-1.55,1.29,0,2.49.12,3.62.34,1.13.23,2.17.58,3.14,1.04v-.62c0-1.38.32-2.52.97-3.42.64-.9,1.7-1.34,3.17-1.34h5.31v4.83h-6.76v2.28c1.29,1.1,2.29,2.44,3,4,.71,1.56,1.07,3.29,1.07,5.17,0,2.39-.55,4.52-1.66,6.38-1.1,1.86-2.67,3.31-4.69,4.35-2.02,1.04-4.39,1.55-7.11,1.55-.6,0-1.2-.03-1.79-.1-.6-.07-1.15-.15-1.66-.24-1.15.32-2.22.79-3.21,1.41s-1.48,1.48-1.48,2.59.51,1.77,1.52,2.14c1.01.37,2.32.55,3.93.55h7.59c4.42,0,7.62.84,9.63,2.52,2,1.68,3,3.99,3,6.93ZM425.15,537.18c0-1.43-.54-2.56-1.62-3.42-1.08-.85-3-1.28-5.76-1.28h-11.87c-1.15.5-1.99,1.16-2.52,1.97-.53.8-.79,1.76-.79,2.86,0,1.56.59,2.9,1.76,4,1.17,1.1,3.16,1.66,5.97,1.66h5.11c3.08,0,5.47-.48,7.18-1.45,1.7-.97,2.55-2.42,2.55-4.35ZM412.8,516.55c2.35,0,4.21-.56,5.59-1.69,1.38-1.13,2.07-2.86,2.07-5.21v-1.93c0-2.35-.69-4.08-2.07-5.21s-3.24-1.69-5.59-1.69-4.21.56-5.59,1.69-2.07,2.86-2.07,5.21v1.93c0,2.35.69,4.08,2.07,5.21,1.38,1.13,3.24,1.69,5.59,1.69Z"/>
    <path class="st2" d="M451.02,533.67c-3.22,0-6.03-.77-8.42-2.31-2.39-1.54-4.25-3.7-5.59-6.49-1.33-2.78-2-6.06-2-9.83s.67-7.05,2-9.83c1.33-2.78,3.2-4.94,5.59-6.49,2.39-1.54,5.2-2.31,8.42-2.31s5.91.75,8.21,2.24c2.3,1.5,4.07,3.55,5.31,6.18,1.24,2.62,1.86,5.61,1.86,8.97v2.62h-25.6v1.66c0,3.08.93,5.65,2.79,7.69,1.86,2.05,4.45,3.07,7.76,3.07,2.25,0,4.22-.53,5.9-1.59,1.68-1.06,2.98-2.58,3.9-4.55l3.93,2.83c-1.15,2.39-2.94,4.35-5.38,5.87-2.44,1.52-5.34,2.28-8.69,2.28ZM451.02,501.03c-1.98,0-3.74.46-5.28,1.38-1.54.92-2.75,2.2-3.62,3.83-.87,1.63-1.31,3.48-1.31,5.55v.48h19.67v-.76c0-2.12-.39-3.96-1.17-5.52-.78-1.56-1.89-2.78-3.31-3.66-1.43-.87-3.08-1.31-4.97-1.31Z"/>
    <path class="st2" d="M487.52,533.67c-3.27,0-6.03-.63-8.28-1.9-2.25-1.26-4.19-2.96-5.8-5.07l3.93-3.17c1.38,1.7,2.92,3.04,4.62,4,1.7.97,3.68,1.45,5.93,1.45s4.17-.51,5.49-1.52c1.31-1.01,1.97-2.44,1.97-4.28,0-1.38-.45-2.58-1.35-3.59-.9-1.01-2.52-1.68-4.86-2l-2.83-.41c-2.16-.32-4.12-.86-5.86-1.62-1.75-.76-3.12-1.84-4.11-3.24-.99-1.4-1.48-3.21-1.48-5.42,0-3.54,1.21-6.17,3.62-7.9,2.42-1.72,5.44-2.59,9.07-2.59,1.93,0,3.65.23,5.14.69,1.49.46,2.84,1.12,4.04,1.97,1.2.85,2.28,1.88,3.24,3.07l-3.66,3.31c-.78-1.1-1.93-2.1-3.45-3-1.52-.9-3.43-1.35-5.73-1.35s-3.98.5-5.17,1.48c-1.2.99-1.79,2.34-1.79,4.04s.59,2.96,1.76,3.76c1.17.81,2.86,1.39,5.07,1.76l2.76.41c3.96.6,6.76,1.74,8.42,3.42,1.66,1.68,2.48,3.88,2.48,6.59,0,2.3-.53,4.28-1.59,5.93-1.06,1.66-2.58,2.93-4.55,3.83-1.98.9-4.32,1.35-7.04,1.35Z"/>
    <path class="st2" d="M511.74,546.64v-49.4h5.52v5.8h.28c.92-2.25,2.28-3.92,4.07-5,1.79-1.08,3.91-1.62,6.35-1.62,2.99,0,5.57.76,7.73,2.28,2.16,1.52,3.83,3.67,5,6.45s1.76,6.08,1.76,9.9-.59,7.06-1.76,9.87-2.84,4.97-5,6.49c-2.16,1.52-4.74,2.28-7.73,2.28-2.44,0-4.52-.55-6.24-1.66-1.73-1.1-3.12-2.76-4.17-4.97h-.28v19.6h-5.52ZM526.44,528.7c3.13,0,5.59-.98,7.38-2.93s2.69-4.52,2.69-7.69v-6.07c0-3.17-.9-5.74-2.69-7.69s-4.26-2.93-7.38-2.93c-1.66,0-3.19.3-4.59.9-1.4.6-2.52,1.4-3.35,2.42-.83,1.01-1.24,2.19-1.24,3.52v13.25c0,1.52.41,2.82,1.24,3.9.83,1.08,1.94,1.91,3.35,2.48,1.4.58,2.93.86,4.59.86Z"/>
    <path class="st2" d="M558.59,532.84h-5.52v-35.6h5.52v6.55h.35c.41-1.15,1.06-2.22,1.93-3.21.87-.99,2-1.79,3.38-2.42s3.04-.93,4.97-.93h2.14v5.52h-3.24c-1.98,0-3.68.27-5.11.79-1.43.53-2.52,1.23-3.28,2.1s-1.14,1.89-1.14,3.04v24.15Z"/>
    <path class="st2" d="M592.82,533.67c-3.17,0-5.97-.77-8.38-2.31s-4.3-3.7-5.66-6.49c-1.36-2.78-2.04-6.06-2.04-9.83s.68-7.05,2.04-9.83c1.36-2.78,3.24-4.94,5.66-6.49s5.21-2.31,8.38-2.31,5.97.77,8.38,2.31,4.3,3.7,5.66,6.49c1.36,2.78,2.04,6.06,2.04,9.83s-.68,7.05-2.04,9.83c-1.36,2.78-3.24,4.95-5.66,6.49s-5.21,2.31-8.38,2.31ZM592.82,528.77c2.99,0,5.43-.92,7.31-2.76,1.89-1.84,2.83-4.65,2.83-8.42v-5.11c0-3.77-.94-6.58-2.83-8.42-1.89-1.84-4.32-2.76-7.31-2.76s-5.37.92-7.28,2.76c-1.91,1.84-2.86,4.65-2.86,8.42v5.11c0,3.77.95,6.58,2.86,8.42,1.91,1.84,4.34,2.76,7.28,2.76Z"/>
    <path class="st2" d="M619.31,532.84v-51.06h5.52v32.36h.28l5.45-6.07,10.07-10.83h6.69l-13.18,14.08,14.49,21.53h-6.69l-11.8-18.15-5.31,5.45v12.7h-5.52Z"/>
    <path class="st2" d="M669.2,533.67c-3.22,0-6.03-.77-8.42-2.31-2.39-1.54-4.25-3.7-5.59-6.49-1.33-2.78-2-6.06-2-9.83s.67-7.05,2-9.83c1.33-2.78,3.2-4.94,5.59-6.49,2.39-1.54,5.2-2.31,8.42-2.31s5.91.75,8.21,2.24c2.3,1.5,4.07,3.55,5.31,6.18,1.24,2.62,1.86,5.61,1.86,8.97v2.62h-25.6v1.66c0,3.08.93,5.65,2.79,7.69,1.86,2.05,4.45,3.07,7.76,3.07,2.25,0,4.22-.53,5.9-1.59,1.68-1.06,2.98-2.58,3.9-4.55l3.93,2.83c-1.15,2.39-2.94,4.35-5.38,5.87-2.44,1.52-5.34,2.28-8.69,2.28ZM669.2,501.03c-1.98,0-3.74.46-5.28,1.38-1.54.92-2.75,2.2-3.62,3.83-.87,1.63-1.31,3.48-1.31,5.55v.48h19.67v-.76c0-2.12-.39-3.96-1.17-5.52-.78-1.56-1.89-2.78-3.31-3.66-1.43-.87-3.08-1.31-4.97-1.31Z"/>
    <path class="st2" d="M700.53,532.84h-5.52v-35.6h5.52v5.8h.28c.87-2.02,2.1-3.63,3.69-4.83s3.71-1.79,6.38-1.79c3.68,0,6.59,1.18,8.73,3.55,2.14,2.37,3.21,5.72,3.21,10.04v22.84h-5.52v-21.87c0-3.17-.68-5.57-2.04-7.18-1.36-1.61-3.37-2.42-6.04-2.42-1.47,0-2.88.24-4.21.72-1.33.48-2.42,1.23-3.24,2.24-.83,1.01-1.24,2.28-1.24,3.79v24.7Z"/>
  </g>
  <g class="st1">
    <path class="st5" d="M346.27,572.13v7.2h-2.02v-16.75h6.67c.98,0,1.81.18,2.51.55.7.37,1.23.9,1.61,1.61.38.7.56,1.57.56,2.59,0,1.22-.29,2.22-.86,3.02-.58.8-1.41,1.33-2.5,1.58l3.84,7.39h-2.28l-3.62-7.2h-3.91ZM346.27,570.4h4.66c.53,0,.98-.09,1.36-.28.38-.18.66-.46.86-.82.2-.36.3-.8.3-1.31v-1.25c0-.51-.1-.95-.3-1.31-.2-.36-.49-.63-.86-.82-.38-.18-.83-.28-1.36-.28h-4.66v6.05Z"/>
    <path class="st5" d="M361.11,562.58h2.02v10.37c0,1.06.13,1.95.38,2.68.26.73.68,1.28,1.26,1.64.58.37,1.37.55,2.36.55s1.78-.18,2.37-.55c.58-.37,1-.92,1.26-1.64.26-.73.38-1.62.38-2.68v-10.37h2.02v9.89c0,1.62-.2,2.96-.59,4.02-.39,1.06-1.04,1.85-1.93,2.36-.89.51-2.09.77-3.57.77s-2.67-.26-3.53-.77c-.86-.51-1.48-1.3-1.86-2.36s-.56-2.4-.56-4.02v-9.89Z"/>
    <path class="st5" d="M385.32,579.33h-6.72v-1.68h2.35v-13.39h-2.35v-1.68h6.72v1.68h-2.35v13.39h2.35v1.68Z"/>
    <path class="st5" d="M390.89,579.33v-16.75h2.69l3.17,5.93,1.63,3.1h.12l1.66-3.1,3.17-5.93h2.59v16.75h-1.97v-14.11h-.12l-1.42,2.81-4.01,7.3-4.01-7.3-1.42-2.81h-.12v14.11h-1.97Z"/>
    <path class="st5" d="M423.24,564.36h-5.33v14.98h-2.02v-14.98h-5.33v-1.78h12.67v1.78Z"/>
    <path class="st5" d="M438.12,579.33h-10.22v-16.75h10.22v1.78h-8.21v5.62h7.73v1.78h-7.73v5.81h8.21v1.78Z"/>
    <path class="st5" d="M457.61,579.62c-1.44,0-2.69-.33-3.76-1-1.06-.66-1.89-1.64-2.47-2.93s-.88-2.87-.88-4.74.29-3.45.88-4.74c.58-1.29,1.41-2.26,2.47-2.93,1.06-.66,2.32-1,3.76-1s2.69.33,3.76,1c1.06.66,1.89,1.64,2.47,2.93.58,1.29.88,2.87.88,4.74s-.29,3.45-.88,4.74-1.41,2.26-2.47,2.93c-1.06.66-2.32,1-3.76,1ZM457.61,577.82c.98,0,1.83-.23,2.57-.68.74-.46,1.32-1.09,1.74-1.91.42-.82.64-1.78.64-2.88v-2.78c0-1.1-.21-2.07-.64-2.89-.42-.82-1-1.46-1.74-1.91-.74-.45-1.59-.67-2.57-.67s-1.81.22-2.56.67c-.74.45-1.33,1.08-1.75,1.91-.42.82-.64,1.79-.64,2.89v2.78c0,1.1.21,2.06.64,2.88.42.82,1.01,1.45,1.75,1.91.74.46,1.6.68,2.56.68Z"/>
    <path class="st5" d="M470.23,579.33v-16.75h2.69l3.17,5.93,1.63,3.1h.12l1.66-3.1,3.17-5.93h2.59v16.75h-1.97v-14.11h-.12l-1.42,2.81-4.01,7.3-4.01-7.3-1.42-2.81h-.12v14.11h-1.97Z"/>
    <path class="st5" d="M510.15,564.36h-5.33v14.98h-2.02v-14.98h-5.33v-1.78h12.67v1.78Z"/>
    <path class="st5" d="M525.03,579.33h-10.22v-16.75h10.22v1.78h-8.21v5.62h7.73v1.78h-7.73v5.81h8.21v1.78Z"/>
    <path class="st5" d="M544.51,579.33h-2.45l-5.57-16.75h2.16l2.76,8.45,1.85,6.29h.12l1.9-6.29,2.78-8.45h2.09l-5.64,16.75Z"/>
    <path class="st5" d="M564.98,579.33h-10.22v-16.75h10.22v1.78h-8.21v5.62h7.73v1.78h-7.73v5.81h8.21v1.78Z"/>
    <path class="st5" d="M572.66,572.13v7.2h-2.02v-16.75h6.67c.98,0,1.81.18,2.51.55s1.23.9,1.61,1.61.56,1.57.56,2.59c0,1.22-.29,2.22-.86,3.02s-1.41,1.33-2.5,1.58l3.84,7.39h-2.28l-3.62-7.2h-3.91ZM572.66,570.4h4.66c.53,0,.98-.09,1.36-.28.38-.18.66-.46.86-.82.2-.36.3-.8.3-1.31v-1.25c0-.51-.1-.95-.3-1.31-.2-.36-.49-.63-.86-.82-.38-.18-.83-.28-1.36-.28h-4.66v6.05Z"/>
    <path class="st5" d="M597.86,579.33l-5.57-8.23-2.38,2.64v5.59h-2.02v-16.75h2.02v8.9h.07l2.4-2.9,5.06-6h2.47l-6.24,7.18,6.67,9.58h-2.5Z"/>
    <path class="st5" d="M615.24,579.33h-10.22v-16.75h10.22v1.78h-8.21v5.62h7.73v1.78h-7.73v5.81h8.21v1.78Z"/>
    <path class="st5" d="M631.08,579.33l-6.12-10.22-2.02-3.72h-.07v13.94h-1.97v-16.75h2.33l6.12,10.22,2.02,3.72h.07v-13.94h1.97v16.75h-2.33Z"/>
    <path class="st5" d="M649.94,579.33l-6.12-10.22-2.02-3.72h-.07v13.94h-1.97v-16.75h2.33l6.12,10.22,2.02,3.72h.07v-13.94h1.97v16.75h-2.33Z"/>
    <path class="st5" d="M668.86,579.33h-10.22v-16.75h10.22v1.78h-8.21v5.62h7.73v1.78h-7.73v5.81h8.21v1.78Z"/>
    <path class="st5" d="M684.7,579.33l-6.12-10.22-2.02-3.72h-.07v13.94h-1.97v-16.75h2.33l6.12,10.22,2.02,3.72h.07v-13.94h1.97v16.75h-2.33Z"/>
  </g>
</svg>