<?xml version="1.0" encoding="UTF-8"?>
<svg id="Layer_1" xmlns="http://www.w3.org/2000/svg" xmlns:xlink="http://www.w3.org/1999/xlink" version="1.1" viewBox="0 0 1024 1024">
  <!-- Generator: Adobe Illustrator 30.2.1, SVG Export Plug-In . SVG Version: 2.1.1 Build 1)  -->
  <defs>
    <style>
      .st0 {
        opacity: .92;
      }

      .st0, .st1 {
        isolation: isolate;
      }

      .st2 {
        fill: #4f8e9e;
      }

      .st3 {
        fill: url(#linear-gradient);
      }

      .st4 {
        fill: none;
        stroke: #5e9ca5;
        stroke-linecap: round;
        stroke-linejoin: round;
        stroke-width: 4.72px;
      }

      .st5 {
        fill: #5e9ca5;
      }

      .st6 {
        fill: #a8e1dd;
      }
    </style>
    <linearGradient id="linear-gradient" x1="-295.62" y1="35.1" x2="-295.62" y2="36.1" gradientTransform="translate(62329.15 -5716.04) scale(209.11 170.98)" gradientUnits="userSpaceOnUse">
      <stop offset="0" stop-color="#f7fafb"/>
      <stop offset=".6" stop-color="#f2f6f7"/>
      <stop offset="1" stop-color="#eaf1f2"/>
    </linearGradient>
  </defs>
  <rect class="st6" width="1024" height="1024"/>
  <g>
    <path class="st3" d="M584.01,457.61l-40.91-19.76-81.83,8.36-12.12-.77-11.37-3.8-2.65-1.9,1.13-1.14-2.28.77-7.96-7.98-6.82-16.72.76-6.84-5.3-19.76-6.82-50.15.75-13.68,3.78-7.6,9.48-8.73,21.97-7.6,114.42-13.68,20.46.77,12.88,6.08,8.71,10.26,4.55,12.92,2.27,12.16-1.51,3.8,3.03,6.08,3.79,25.08v3.04l-3.79,2.28h4.55l3.79,31.92-3.04,11.4-5.3,8.36-10.23,8.73-14.78,5.71.38,22.41h0s0,0,0,0h0Z"/>
    <g>
      <path class="st4" d="M473.75,377.56c12.39-12.39,28.62-12.98,41.89-7.08,13.28,5.9,28.03,4.13,41.89-11.8"/>
      <path class="st5" d="M541.81,287.63c9.46-1.39,19.05-2.83,28.57-2.07,8.47.67,9.03.88,9.36,1,8.85,3.27,15.09,8.65,20.93,16.37,2.82,4.08,4.37,8.7,5.41,13.48,2.96,16.83,4.99,33.8,8.03,50.63,1.37,8.15,2.69,16.3,3.54,24.52,1.6,11.72.41,23.4-7.44,32.59-4.23,5.03-9.61,8.62-15.93,10.95-2.64,1.24-7.71,1.7-9.16,4.05-.96,1.77-.04,5.46.28,7.77.63,3.9,1.23,7.91,1.64,11.89.57,4.95-3.06,4.35-6.35,2.73-3.12-1.46-6.1-2.96-9.16-4.47-8.42-4.07-16.69-8.85-25.31-12.39-2.51-1.04-5.07-1.48-7.8-1.32-21.79,1.6-43.48,4.6-65.27,6.02-8.71.67-17.55,1.95-26.15-.31-10.99-3.05-21.15-10.41-26.09-21.09-2.15-4.4-3.44-9.83-4.13-14.81-1.91-13.03-4.44-25.94-6.47-38.95-1.32-8.28-2.87-16.55-3.92-24.85-.89-7.35-1.86-15.21-.14-22.47,2.91-13.47,14.12-22.93,27.05-25.72,18.16-3.82,36.88-5.04,55.21-7.26,17.72-1.9,35.56-3.51,53.18-6.25M497.16,296.79c-17.88,2.31-35.56,4.79-53.31,6.64-3,.26-5.75,1.36-8.63,2.32-9.76,3.24-18.99,9.71-22.42,19.78-1.44,4.03-1.57,8.54-1.17,12.8.73,9.31,2.11,18.59,3.37,27.85,1.83,14.54,4.67,29,6.96,43.64,3.85,28.01,21.68,37.63,47.77,34.61,21.03-1.77,42.01-3.94,62.99-6.13,6.76-.89,11.63-2.03,17.8,1.98,9.8,5.52,19.45,10.73,29.65,15.43,3.24,1.44,3.21-1.74,3.03-4.17-.32-4.73-.83-7.59-1.4-10.94-.51-2.66-1.51-6.68,1.87-7.68,5.42-1.48,10.83-2.91,15.34-6.46,8.9-7.05,14.86-17.54,14.31-29.19-.32-5.51-1.36-10.95-2.12-16.39-1.45-8.62-2.9-21.62-4.14-30.27-.82-5.74-2.28-11.26-2.98-17.03-.66-6.92-1.37-9.5-2.9-16.29-.89-3.86-1.77-7.08-3.67-10.54-8.69-15.75-23.53-18.74-40.17-17.01-20.08,1.95-39.98,4.99-60.04,7.05h-.14s0,0,0,0h0,0Z"/>
      <path class="st5" d="M542.39,286.45c9.46-1.39,19.05-2.83,28.57-2.07,8.47.67,9.03.88,9.36,1,8.85,3.27,15.09,8.65,20.93,16.37,2.82,4.08,4.37,8.7,5.41,13.48,2.96,16.83,4.99,33.8,8.03,50.63,1.37,8.15,2.69,16.3,3.54,24.52,1.6,11.72.41,23.4-7.44,32.59-4.23,5.03-9.61,8.62-15.93,10.95-2.64,1.24-7.71,1.7-9.16,4.05-.96,1.77-.04,5.46.28,7.77.63,3.9,1.23,7.91,1.64,11.89.57,4.95-3.06,4.35-6.35,2.73-3.12-1.46-6.1-2.96-9.16-4.47-8.42-4.07-16.69-8.85-25.31-12.39-2.51-1.04-5.07-1.48-7.8-1.32-21.79,1.6-43.48,4.6-65.27,6.02-8.71.67-17.55,1.95-26.15-.31-10.99-3.05-21.15-10.41-26.09-21.09-2.15-4.4-3.44-9.83-4.13-14.81-1.91-13.03-4.44-25.94-6.47-38.95-1.32-8.28-2.87-16.55-3.92-24.85-.89-7.35-1.86-15.21-.14-22.47,2.91-13.47,14.12-22.93,27.05-25.72,18.16-3.82,36.88-5.04,55.21-7.26,17.72-1.9,35.56-3.51,53.18-6.25M497.74,295.61c-17.88,2.31-35.56,4.79-53.31,6.64-3,.26-5.75,1.36-8.63,2.32-9.76,3.24-18.99,9.71-22.42,19.78-1.44,4.03-1.57,8.54-1.17,12.8.73,9.31,2.11,18.59,3.37,27.85,1.83,14.54,4.67,29,6.96,43.64,3.85,28.01,21.68,37.63,47.77,34.61,21.03-1.77,42.01-3.94,62.99-6.13,6.76-.89,11.63-2.03,17.8,1.98,9.8,5.52,19.45,10.73,29.65,15.43,3.24,1.44,3.21-1.74,3.03-4.17-.32-4.73-.83-7.59-1.4-10.94-.51-2.66-1.51-6.68,1.87-7.68,5.42-1.48,10.83-2.91,15.34-6.46,8.9-7.05,14.86-17.54,14.31-29.19-.32-5.51-1.36-10.95-2.12-16.39-1.45-8.62-2.9-21.62-4.14-30.27-.82-5.74-2.28-11.26-2.98-17.03-.66-6.92-1.37-9.5-2.9-16.29-.89-3.86-1.77-7.08-3.67-10.54-8.69-15.75-23.53-18.74-40.17-17.01-20.08,1.95-39.98,4.99-60.04,7.05h-.14s0,0,0,0h0,0Z"/>
    </g>
  </g>
  <g class="st0">
    <path class="st2" d="M265.42,473.25h6.88v35.39c0,3.6.44,6.65,1.31,9.13.87,2.49,2.31,4.36,4.3,5.61,1.99,1.26,4.68,1.88,8.07,1.88s6.07-.63,8.07-1.88c1.99-1.26,3.43-3.13,4.3-5.61.87-2.48,1.31-5.53,1.31-9.13v-35.39h6.88v33.75c0,5.52-.67,10.09-2.01,13.72-1.34,3.63-3.54,6.32-6.59,8.07-3.06,1.75-7.13,2.62-12.21,2.62s-9.09-.88-12.04-2.62c-2.95-1.75-5.07-4.44-6.35-8.07-1.28-3.63-1.93-8.21-1.93-13.72v-33.75Z"/>
    <path class="st2" d="M325.55,478.25c-1.37,0-2.38-.34-3.03-1.02-.66-.68-.98-1.57-.98-2.66v-1.07c0-1.09.33-1.98.98-2.66.66-.68,1.67-1.02,3.03-1.02s2.44.34,3.07,1.02c.63.68.94,1.57.94,2.66v1.07c0,1.09-.31,1.98-.94,2.66-.63.68-1.65,1.02-3.07,1.02ZM322.27,530.43v-42.27h6.55v42.27h-6.55Z"/>
    <path class="st2" d="M361.84,530.43h-8.19c-2.24,0-3.96-.66-5.16-1.97-1.2-1.31-1.8-2.98-1.8-5v-29.57h-6.96v-5.73h3.93c1.42,0,2.39-.29,2.91-.86.52-.57.78-1.57.78-2.99v-7.86h5.9v11.71h9.26v5.73h-9.26v30.8h8.6v5.73Z"/>
    <path class="st2" d="M409.44,535.1c0,2.89-.76,5.28-2.29,7.17-1.53,1.88-3.81,3.28-6.84,4.18s-6.81,1.35-11.35,1.35-7.93-.41-10.69-1.23-4.77-2.01-6.02-3.56c-1.26-1.56-1.88-3.43-1.88-5.61,0-2.29.6-4.1,1.8-5.41,1.2-1.31,2.84-2.24,4.92-2.79v-.9c-1.2-.6-2.13-1.38-2.79-2.33-.66-.96-.98-2.14-.98-3.56,0-2.13.68-3.75,2.05-4.87,1.37-1.12,3.11-1.95,5.24-2.5v-.33c-2.51-1.2-4.46-2.92-5.86-5.16-1.39-2.24-2.09-4.83-2.09-7.78s.66-5.43,1.97-7.62c1.31-2.18,3.17-3.89,5.57-5.12,2.4-1.23,5.19-1.84,8.36-1.84,1.53,0,2.96.14,4.3.41,1.34.27,2.58.68,3.73,1.23v-.74c0-1.64.38-2.99,1.15-4.05.76-1.07,2.02-1.6,3.77-1.6h6.31v5.73h-8.03v2.7c1.53,1.31,2.72,2.9,3.56,4.75.85,1.86,1.27,3.91,1.27,6.14,0,2.84-.66,5.37-1.97,7.58s-3.17,3.93-5.57,5.16-5.22,1.84-8.44,1.84c-.71,0-1.42-.04-2.13-.12-.71-.08-1.37-.18-1.97-.29-1.37.38-2.64.94-3.81,1.68-1.17.74-1.76,1.76-1.76,3.07s.6,2.1,1.8,2.54c1.2.44,2.76.66,4.67.66h9.01c5.24,0,9.05,1,11.43,2.99,2.38,1.99,3.56,4.74,3.56,8.23ZM403.29,535.59c0-1.69-.64-3.04-1.92-4.06-1.28-1.01-3.56-1.51-6.84-1.51h-14.09c-1.37.6-2.36,1.38-2.99,2.33-.63.96-.94,2.09-.94,3.4,0,1.86.7,3.44,2.09,4.75s3.75,1.97,7.09,1.97h6.06c3.66,0,6.5-.57,8.52-1.72,2.02-1.15,3.03-2.87,3.03-5.16ZM388.63,511.1c2.79,0,5-.67,6.64-2.01,1.64-1.34,2.46-3.4,2.46-6.18v-2.29c0-2.79-.82-4.85-2.46-6.19-1.64-1.34-3.85-2.01-6.64-2.01s-5,.67-6.64,2.01c-1.64,1.34-2.46,3.4-2.46,6.19v2.29c0,2.79.82,4.85,2.46,6.18,1.64,1.34,3.85,2.01,6.64,2.01Z"/>
    <path class="st2" d="M434.01,531.42c-3.82,0-7.16-.92-10-2.75s-5.05-4.4-6.64-7.7c-1.58-3.3-2.38-7.2-2.38-11.67s.79-8.37,2.38-11.67c1.58-3.3,3.8-5.87,6.64-7.7,2.84-1.83,6.17-2.75,10-2.75s7.02.89,9.75,2.66c2.73,1.78,4.83,4.22,6.31,7.33,1.47,3.11,2.21,6.66,2.21,10.65v3.11h-30.39v1.97c0,3.66,1.11,6.71,3.32,9.13,2.21,2.43,5.28,3.65,9.22,3.65,2.67,0,5.01-.63,7-1.88,1.99-1.26,3.54-3.06,4.63-5.41l4.67,3.36c-1.37,2.84-3.5,5.16-6.39,6.96-2.89,1.8-6.34,2.7-10.32,2.7ZM434.01,492.67c-2.35,0-4.44.55-6.27,1.64-1.83,1.09-3.26,2.61-4.3,4.55-1.04,1.94-1.56,4.14-1.56,6.59v.57h23.35v-.9c0-2.51-.46-4.7-1.39-6.55-.93-1.86-2.24-3.3-3.93-4.34-1.69-1.04-3.66-1.56-5.9-1.56Z"/>
    <path class="st2" d="M477.35,531.42c-3.88,0-7.16-.75-9.83-2.25-2.68-1.5-4.97-3.51-6.88-6.02l4.67-3.77c1.64,2.02,3.47,3.6,5.49,4.75,2.02,1.15,4.37,1.72,7.04,1.72s4.96-.6,6.51-1.8c1.56-1.2,2.33-2.89,2.33-5.08,0-1.64-.53-3.06-1.6-4.26-1.06-1.2-2.99-1.99-5.78-2.38l-3.36-.49c-2.57-.38-4.89-1.02-6.96-1.93-2.08-.9-3.7-2.18-4.87-3.85-1.17-1.67-1.76-3.81-1.76-6.43,0-4.2,1.43-7.33,4.3-9.38s6.46-3.07,10.77-3.07c2.29,0,4.33.27,6.1.82,1.77.55,3.37,1.33,4.79,2.33,1.42,1.01,2.7,2.23,3.85,3.65l-4.34,3.93c-.93-1.31-2.29-2.5-4.1-3.56-1.8-1.07-4.07-1.6-6.8-1.6s-4.72.59-6.14,1.76c-1.42,1.18-2.13,2.77-2.13,4.79s.7,3.51,2.09,4.46c1.39.96,3.4,1.65,6.02,2.09l3.28.49c4.7.71,8.03,2.06,10,4.06,1.97,1.99,2.95,4.6,2.95,7.82,0,2.73-.63,5.08-1.88,7.04-1.26,1.97-3.06,3.48-5.41,4.55-2.35,1.06-5.13,1.6-8.36,1.6Z"/>
    <path class="st2" d="M506.1,546.82v-58.66h6.55v6.88h.33c1.09-2.68,2.7-4.66,4.83-5.94s4.64-1.93,7.54-1.93c3.55,0,6.61.9,9.17,2.7,2.57,1.8,4.55,4.36,5.94,7.66,1.39,3.31,2.09,7.22,2.09,11.76s-.7,8.38-2.09,11.71c-1.39,3.33-3.37,5.9-5.94,7.7-2.57,1.8-5.62,2.7-9.17,2.7-2.9,0-5.37-.66-7.41-1.97-2.05-1.31-3.7-3.28-4.96-5.9h-.33v23.27h-6.55ZM523.55,525.52c3.71,0,6.64-1.16,8.77-3.48s3.2-5.37,3.2-9.13v-7.21c0-3.77-1.07-6.81-3.2-9.13s-5.05-3.48-8.77-3.48c-1.97,0-3.78.36-5.45,1.07-1.67.71-2.99,1.67-3.97,2.87-.98,1.2-1.47,2.59-1.47,4.18v15.73c0,1.8.49,3.35,1.47,4.63.98,1.28,2.31,2.27,3.97,2.95,1.67.68,3.48,1.02,5.45,1.02Z"/>
    <path class="st2" d="M561.73,530.43h-6.55v-42.27h6.55v7.78h.41c.49-1.36,1.26-2.63,2.29-3.81,1.04-1.17,2.38-2.13,4.01-2.87s3.6-1.11,5.9-1.11h2.54v6.55h-3.85c-2.35,0-4.37.32-6.06.94-1.69.63-2.99,1.46-3.89,2.5-.9,1.04-1.35,2.24-1.35,3.6v28.67Z"/>
    <path class="st2" d="M602.36,531.42c-3.77,0-7.09-.92-9.95-2.75s-5.11-4.4-6.72-7.7c-1.61-3.3-2.42-7.2-2.42-11.67s.8-8.37,2.42-11.67c1.61-3.3,3.85-5.87,6.72-7.7,2.87-1.83,6.19-2.75,9.95-2.75s7.09.92,9.95,2.75c2.87,1.83,5.11,4.4,6.72,7.7,1.61,3.3,2.42,7.2,2.42,11.67s-.81,8.37-2.42,11.67c-1.61,3.3-3.85,5.87-6.72,7.7s-6.19,2.75-9.95,2.75ZM602.36,525.6c3.55,0,6.44-1.09,8.68-3.28,2.24-2.18,3.36-5.52,3.36-9.99v-6.06c0-4.48-1.12-7.81-3.36-9.99-2.24-2.18-5.13-3.28-8.68-3.28s-6.38,1.09-8.64,3.28c-2.27,2.18-3.4,5.52-3.4,9.99v6.06c0,4.48,1.13,7.81,3.4,9.99,2.27,2.19,5.15,3.28,8.64,3.28Z"/>
    <path class="st2" d="M633.82,530.43v-60.62h6.55v38.42h.33l6.47-7.21,11.96-12.86h7.95l-15.65,16.71,17.2,25.56h-7.95l-14.01-21.54-6.31,6.47v15.07h-6.55Z"/>
    <path class="st2" d="M693.05,531.42c-3.82,0-7.16-.92-10-2.75s-5.05-4.4-6.64-7.7c-1.58-3.3-2.38-7.2-2.38-11.67s.79-8.37,2.38-11.67c1.58-3.3,3.8-5.87,6.64-7.7,2.84-1.83,6.17-2.75,10-2.75s7.02.89,9.75,2.66c2.73,1.78,4.83,4.22,6.31,7.33,1.47,3.11,2.21,6.66,2.21,10.65v3.11h-30.39v1.97c0,3.66,1.11,6.71,3.32,9.13,2.21,2.43,5.28,3.65,9.22,3.65,2.67,0,5.01-.63,7-1.88,1.99-1.26,3.54-3.06,4.63-5.41l4.67,3.36c-1.37,2.84-3.5,5.16-6.39,6.96-2.89,1.8-6.34,2.7-10.32,2.7ZM693.05,492.67c-2.35,0-4.44.55-6.27,1.64-1.83,1.09-3.26,2.61-4.3,4.55-1.04,1.94-1.56,4.14-1.56,6.59v.57h23.35v-.9c0-2.51-.46-4.7-1.39-6.55-.93-1.86-2.24-3.3-3.93-4.34-1.69-1.04-3.66-1.56-5.9-1.56Z"/>
    <path class="st2" d="M730.24,530.43h-6.55v-42.27h6.55v6.88h.33c1.04-2.4,2.5-4.31,4.38-5.73s4.41-2.13,7.58-2.13c4.37,0,7.82,1.41,10.36,4.22,2.54,2.81,3.81,6.79,3.81,11.92v27.12h-6.55v-25.97c0-3.77-.81-6.61-2.42-8.52-1.61-1.91-4-2.87-7.17-2.87-1.75,0-3.41.29-5,.86-1.58.57-2.87,1.46-3.85,2.66-.98,1.2-1.47,2.7-1.47,4.51v29.33Z"/>
  </g>
  <g class="st1">
    <path class="st5" d="M318.05,571.72v8.4h-2.35v-19.54h7.78c1.14,0,2.11.21,2.93.64.81.43,1.44,1.06,1.88,1.88.44.82.66,1.83.66,3.02,0,1.42-.34,2.59-1.01,3.53-.67.93-1.64,1.55-2.91,1.85l4.48,8.62h-2.66l-4.23-8.4h-4.56ZM318.05,569.7h5.43c.62,0,1.14-.11,1.58-.32.44-.21.77-.53,1.01-.95.23-.42.35-.93.35-1.53v-1.46c0-.6-.12-1.11-.35-1.53-.23-.42-.57-.74-1.01-.95-.44-.21-.97-.32-1.58-.32h-5.43v7.06Z"/>
    <path class="st5" d="M335.35,560.57h2.35v12.1c0,1.23.15,2.27.45,3.12.3.85.79,1.49,1.47,1.92.68.43,1.6.64,2.76.64s2.08-.21,2.76-.64c.68-.43,1.17-1.07,1.47-1.92.3-.85.45-1.89.45-3.12v-12.1h2.35v11.54c0,1.89-.23,3.45-.69,4.69-.46,1.24-1.21,2.16-2.25,2.76-1.05.6-2.44.9-4.17.9s-3.11-.3-4.12-.9c-1.01-.6-1.73-1.52-2.17-2.76-.44-1.24-.66-2.8-.66-4.69v-11.54Z"/>
    <path class="st5" d="M363.6,580.12h-7.84v-1.96h2.74v-15.62h-2.74v-1.96h7.84v1.96h-2.74v15.62h2.74v1.96Z"/>
    <path class="st5" d="M370.1,580.12v-19.54h3.14l3.7,6.92,1.9,3.61h.14l1.93-3.61,3.7-6.92h3.02v19.54h-2.3v-16.46h-.14l-1.65,3.28-4.68,8.51-4.68-8.51-1.65-3.28h-.14v16.46h-2.3Z"/>
    <path class="st5" d="M407.84,562.64h-6.22v17.47h-2.35v-17.47h-6.22v-2.07h14.78v2.07Z"/>
    <path class="st5" d="M425.2,580.12h-11.93v-19.54h11.93v2.07h-9.58v6.55h9.02v2.07h-9.02v6.78h9.58v2.07Z"/>
    <path class="st5" d="M447.94,580.45c-1.68,0-3.14-.39-4.38-1.16-1.24-.77-2.2-1.91-2.88-3.42-.68-1.5-1.02-3.35-1.02-5.53s.34-4.03,1.02-5.53c.68-1.5,1.64-2.64,2.88-3.42,1.24-.77,2.7-1.16,4.38-1.16s3.14.39,4.38,1.16,2.2,1.91,2.88,3.42,1.02,3.35,1.02,5.53-.34,4.03-1.02,5.53c-.68,1.5-1.64,2.64-2.88,3.42-1.24.78-2.7,1.16-4.38,1.16ZM447.94,578.35c1.14,0,2.14-.27,3-.8.86-.53,1.54-1.27,2.03-2.23.49-.95.74-2.07.74-3.36v-3.25c0-1.29-.25-2.41-.74-3.37-.5-.96-1.17-1.7-2.03-2.23-.86-.52-1.86-.78-3-.78s-2.11.26-2.98.78-1.55,1.26-2.04,2.23c-.49.96-.74,2.09-.74,3.37v3.25c0,1.29.25,2.41.74,3.36.5.95,1.18,1.69,2.04,2.23.87.53,1.86.8,2.98.8Z"/>
    <path class="st5" d="M462.67,580.12v-19.54h3.14l3.7,6.92,1.9,3.61h.14l1.93-3.61,3.7-6.92h3.02v19.54h-2.3v-16.46h-.14l-1.65,3.28-4.68,8.51-4.68-8.51-1.65-3.28h-.14v16.46h-2.3Z"/>
    <path class="st5" d="M509.23,562.64h-6.22v17.47h-2.35v-17.47h-6.22v-2.07h14.78v2.07Z"/>
    <path class="st5" d="M526.59,580.12h-11.93v-19.54h11.93v2.07h-9.58v6.55h9.02v2.07h-9.02v6.78h9.58v2.07Z"/>
    <path class="st5" d="M549.33,580.12h-2.86l-6.5-19.54h2.52l3.22,9.86,2.16,7.34h.14l2.21-7.34,3.25-9.86h2.44l-6.58,19.54Z"/>
    <path class="st5" d="M573.21,580.12h-11.93v-19.54h11.93v2.07h-9.58v6.55h9.02v2.07h-9.02v6.78h9.58v2.07Z"/>
    <path class="st5" d="M582.17,571.72v8.4h-2.35v-19.54h7.78c1.14,0,2.11.21,2.93.64.81.43,1.44,1.06,1.88,1.88.44.82.66,1.83.66,3.02,0,1.42-.34,2.59-1.01,3.53s-1.64,1.55-2.91,1.85l4.48,8.62h-2.66l-4.23-8.4h-4.56ZM582.17,569.7h5.43c.62,0,1.14-.11,1.58-.32.44-.21.77-.53,1.01-.95.23-.42.35-.93.35-1.53v-1.46c0-.6-.12-1.11-.35-1.53s-.57-.74-1.01-.95c-.44-.21-.97-.32-1.58-.32h-5.43v7.06Z"/>
    <path class="st5" d="M611.57,580.12l-6.5-9.6-2.77,3.08v6.52h-2.35v-19.54h2.35v10.39h.08l2.8-3.39,5.91-7h2.88l-7.28,8.37,7.78,11.17h-2.91Z"/>
    <path class="st5" d="M631.84,580.12h-11.93v-19.54h11.93v2.07h-9.58v6.55h9.02v2.07h-9.02v6.78h9.58v2.07Z"/>
    <path class="st5" d="M650.32,580.12l-7.14-11.93-2.35-4.34h-.08v16.27h-2.3v-19.54h2.72l7.14,11.93,2.35,4.34h.08v-16.27h2.3v19.54h-2.72Z"/>
    <path class="st5" d="M672.33,580.12l-7.14-11.93-2.35-4.34h-.08v16.27h-2.3v-19.54h2.72l7.14,11.93,2.35,4.34h.08v-16.27h2.3v19.54h-2.72Z"/>
    <path class="st5" d="M694.39,580.12h-11.93v-19.54h11.93v2.07h-9.58v6.55h9.02v2.07h-9.02v6.78h9.58v2.07Z"/>
    <path class="st5" d="M712.87,580.12l-7.14-11.93-2.35-4.34h-.08v16.27h-2.3v-19.54h2.72l7.14,11.93,2.35,4.34h.08v-16.27h2.3v19.54h-2.72Z"/>
  </g>
</svg>